<svg xmlns="http://www.w3.org/2000/svg" viewBox="0 0 900 606" width="900" height="606">
<defs>
  <linearGradient id="paper" x1="0" y1="0" x2="1" y2="1">
    <stop offset="0" stop-color="#f5ecd6"/><stop offset="0.55" stop-color="#efe2c4"/><stop offset="1" stop-color="#e4d2ab"/>
  </linearGradient>
  <radialGradient id="vignette" cx="50%" cy="45%" r="75%">
    <stop offset="0.6" stop-color="#8a5a2b" stop-opacity="0"/><stop offset="1" stop-color="#8a5a2b" stop-opacity="0.32"/>
  </radialGradient>
  <radialGradient id="foxing" cx="50%" cy="50%" r="50%">
    <stop offset="0" stop-color="#a0703a" stop-opacity="0.10"/><stop offset="1" stop-color="#a0703a" stop-opacity="0"/>
  </radialGradient>
  <filter id="grain" x="0" y="0" width="100%" height="100%">
    <feTurbulence type="fractalNoise" baseFrequency="0.85" numOctaves="2" seed="7" result="n"/>
    <feColorMatrix in="n" values="0 0 0 0 0.35  0 0 0 0 0.22  0 0 0 0 0.1  0 0 0 0.10 0"/>
  </filter>
  <filter id="shadow" x="-5%" y="-5%" width="110%" height="110%">
    <feDropShadow dx="0" dy="3" stdDeviation="5" flood-color="#000" flood-opacity="0.45"/>
  </filter>
</defs>
<rect x="14" y="14" width="872" height="578" fill="url(#paper)" filter="url(#shadow)"/>
<rect x="14" y="14" width="872" height="578" filter="url(#grain)"/>
<circle cx="729.04" cy="118.03999999999999" r="90" fill="url(#foxing)"/>
<circle cx="118.64" cy="511.08" r="70" fill="url(#foxing)"/>
<rect x="14" y="14" width="872" height="578" fill="url(#vignette)"/>
<rect x="28" y="28" width="844" height="550" fill="none" stroke="#5a3e2b" stroke-width="1.6"/>
<rect x="36" y="36" width="828" height="534" fill="none" stroke="#5a3e2b" stroke-width="0.6"/>
<rect x="41" y="41" width="818" height="524" fill="none" stroke="#7a1424" stroke-width="0.6"/>
<g><path d="M36 30 L42 36 L36 42 L30 36 Z" fill="#7a1424"/><circle cx="36" cy="36" r="10" fill="none" stroke="#9a7a45" stroke-width="1"/></g><g><path d="M864 30 L870 36 L864 42 L858 36 Z" fill="#7a1424"/><circle cx="864" cy="36" r="10" fill="none" stroke="#9a7a45" stroke-width="1"/></g><g><path d="M36 564 L42 570 L36 576 L30 570 Z" fill="#7a1424"/><circle cx="36" cy="570" r="10" fill="none" stroke="#9a7a45" stroke-width="1"/></g><g><path d="M864 564 L870 570 L864 576 L858 570 Z" fill="#7a1424"/><circle cx="864" cy="570" r="10" fill="none" stroke="#9a7a45" stroke-width="1"/></g>

<g stroke="#9a7a45" stroke-width="1" fill="none">
    <line x1="280" y1="116" x2="428" y2="116"/>
    <line x1="472" y1="116" x2="620" y2="116"/>
    <path d="M428 116 Q439 107 450 116 Q461 107 472 116"/>
    <path d="M428 116 Q439 125 450 116 Q461 125 472 116"/>
  </g><path d="M450 112 L454 116 L450 120 L446 116 Z" fill="#7a1424"/><path d="M274 113.5 L276.5 116 L274 118.5 L271.5 116 Z" fill="#9a7a45"/><path d="M626 113.5 L628.5 116 L626 118.5 L623.5 116 Z" fill="#9a7a45"/><text x="450" y="206" text-anchor="middle" font-family="'Cambria Math','STIX Two Math','Noto Sans Math','Segoe UI Symbol','DejaVu Sans',serif" font-size="50" fill="#2b1d14">𝕬𝖓𝖉𝖗𝖊𝖟𝖟𝖆 𝕸𝖊𝖉𝖊𝖎𝖗𝖔𝖘 𝕾𝖔𝖚𝖟𝖆</text><text x="450" y="256" text-anchor="middle" font-family="Georgia,'Times New Roman','Liberation Serif',serif" font-size="15" letter-spacing="7" fill="#7a1424">BACKEND ENGINEER</text><text x="450" y="286" text-anchor="middle" font-family="Georgia,'Times New Roman','Liberation Serif',serif" font-style="italic" font-size="17" fill="#5a3e2b">Java &amp; Go · Security</text><line x1="390" y1="314" x2="510" y2="314" stroke="#9a7a45" stroke-width="1"/><text x="450" y="358" text-anchor="middle" font-family="Georgia,'Times New Roman','Liberation Serif',serif" font-style="italic" font-size="18" fill="#2b1d14">“Java and Go day to day — increasingly focused</text><text x="450" y="384" text-anchor="middle" font-family="Georgia,'Times New Roman','Liberation Serif',serif" font-style="italic" font-size="18" fill="#2b1d14">on the security side of both.”</text><g stroke="#9a7a45" stroke-width="1" fill="none">
    <line x1="340" y1="426" x2="428" y2="426"/>
    <line x1="472" y1="426" x2="560" y2="426"/>
    <path d="M428 426 Q439 417 450 426 Q461 417 472 426"/>
    <path d="M428 426 Q439 435 450 426 Q461 435 472 426"/>
  </g><path d="M450 422 L454 426 L450 430 L446 426 Z" fill="#7a1424"/><path d="M334 423.5 L336.5 426 L334 428.5 L331.5 426 Z" fill="#9a7a45"/><path d="M566 423.5 L568.5 426 L566 428.5 L563.5 426 Z" fill="#9a7a45"/><text x="450" y="468" text-anchor="middle" font-family="Georgia,'Times New Roman','Liberation Serif',serif" font-size="12" letter-spacing="6" fill="#7a6450">LEIPZIG</text><text x="450" y="494" text-anchor="middle" font-family="Georgia,'Times New Roman','Liberation Serif',serif" font-size="14" letter-spacing="1" fill="#7a1424">andrezzaammss@gmail.com</text>

<text x="450" y="556" text-anchor="middle" font-family="Georgia,'Times New Roman','Liberation Serif',serif" font-style="italic" font-size="13" fill="#7a6450">· i ·</text>
</svg>
